<svg width="16" height="16" viewBox="0 0 16 16" fill="none" xmlns="http://www.w3.org/2000/svg">
<path fill-rule="evenodd" clip-rule="evenodd" d="M15.4625 8.75H7.25V0.5375C7.49675 0.51275 7.74725 0.5 8 0.5C12.1423 0.5 15.5 3.85775 15.5 8C15.5 8.25275 15.4872 8.50325 15.4625 8.75ZM8 15.5C3.85775 15.5 0.5 12.1423 0.5 8C0.5 4.6415 2.70725 1.799 5.75 0.8435V2.4365C3.091 3.51621 1.56831 6.32713 2.11644 9.14416C2.66457 11.9612 5.13015 13.9961 8 14C10.4452 13.9999 12.646 12.5165 13.5635 10.25H15.1565C14.201 13.2927 11.3585 15.5 8 15.5ZM8.75 7.25V2.0465C11.4689 2.38989 13.6101 4.53108 13.9535 7.25H8.75Z" fill="#BDC5CE"/>
</svg>
