<svg width="18" height="15" viewBox="0 0 18 15" fill="none" xmlns="http://www.w3.org/2000/svg">
<path d="M12.6364 14.0909V12.6364C12.6364 11.0297 11.3339 9.72729 9.72727 9.72729H3.90909C2.30244 9.72729 1 11.0297 1 12.6364V14.0909" stroke="#2D3A45" stroke-width="1.4" stroke-linecap="round" stroke-linejoin="round"/>
<path fill-rule="evenodd" clip-rule="evenodd" d="M6.81827 6.81818C8.42492 6.81818 9.72736 5.51574 9.72736 3.90909C9.72736 2.30244 8.42492 1 6.81827 1C5.21162 1 3.90918 2.30244 3.90918 3.90909C3.90918 5.51574 5.21162 6.81818 6.81827 6.81818Z" stroke="#2D3A45" stroke-width="1.4" stroke-linecap="round" stroke-linejoin="round"/>
<path d="M16.9999 14.0909V12.6363C16.9989 11.3106 16.1018 10.1532 14.8181 9.82178" stroke="#2D3A45" stroke-width="1.4" stroke-linecap="round" stroke-linejoin="round"/>
<path d="M11.9092 1.0946C13.1964 1.42418 14.0967 2.58405 14.0967 3.91279C14.0967 5.24152 13.1964 6.40139 11.9092 6.73097" stroke="#2D3A45" stroke-width="1.4" stroke-linecap="round" stroke-linejoin="round"/>
</svg>
