<svg width="16" height="14" viewBox="0 0 16 14" fill="none" xmlns="http://www.w3.org/2000/svg">
<path d="M1 1.63496V5.45315H4.81818" stroke="white" stroke-width="1.4" stroke-linecap="round" stroke-linejoin="round"/>
<path d="M14.9998 11.8168V7.9986H11.1816" stroke="white" stroke-width="1.4" stroke-linecap="round" stroke-linejoin="round"/>
<path d="M12.7428 5.0503C12.8718 5.41476 13.2718 5.60565 13.6362 5.47669C14.0007 5.34772 14.1916 4.94772 14.0626 4.58327L12.7428 5.0503ZM3.95273 2.6786L4.43207 3.18873C4.4374 3.18372 4.44265 3.17863 4.44783 3.17345L3.95273 2.6786ZM0.520656 4.94302C0.238921 5.20776 0.225139 5.65076 0.489873 5.93249C0.754607 6.21423 1.19761 6.22801 1.47934 5.96328L0.520656 4.94302ZM15.4793 8.50873C15.7611 8.244 15.7749 7.80099 15.5101 7.51926C15.2454 7.23752 14.8024 7.22374 14.5207 7.48848L15.4793 8.50873ZM12.0473 10.7731L11.5679 10.263C11.5626 10.268 11.5573 10.2731 11.5522 10.2783L12.0473 10.7731ZM3.25717 8.40145C3.12821 8.037 2.72821 7.8461 2.36376 7.97507C1.9993 8.10403 1.8084 8.50403 1.93737 8.86848L3.25717 8.40145ZM14.0626 4.58327C13.3264 2.50284 11.5744 0.945587 9.42193 0.458571L9.11298 1.82405C10.7966 2.20499 12.167 3.42304 12.7428 5.0503L14.0626 4.58327ZM9.42193 0.458571C7.2695 -0.0284449 5.01771 0.622886 3.45763 2.18375L4.44783 3.17345C5.66809 1.95258 7.42939 1.44312 9.11298 1.82405L9.42193 0.458571ZM3.47338 2.16848L0.520656 4.94302L1.47934 5.96328L4.43207 3.18873L3.47338 2.16848ZM14.5207 7.48848L11.5679 10.263L12.5266 11.2833L15.4793 8.50873L14.5207 7.48848ZM11.5522 10.2783C10.3319 11.4992 8.57061 12.0086 6.88703 11.6277L6.57807 12.9932C8.7305 13.4802 10.9823 12.8289 12.5424 11.268L11.5522 10.2783ZM6.88703 11.6277C5.20344 11.2468 3.83301 10.0287 3.25717 8.40145L1.93737 8.86848C2.67357 10.9489 4.42563 12.5062 6.57807 12.9932L6.88703 11.6277Z" fill="white"/>
</svg>
